# xmcd CD database file
#
# Track frame offsets:
#	150
#	12192
#	27140
#	38230
#	52140
#	63228
#	74699
#	85195
#	98713
#	108218
#
# Disc length: 1619 seconds
#
# Revision: 0
# Processed by: cddbd v1.5PL3 Copyright (c) Steve Scherf et al.
# Submitted via: CDex 1.51
#
DISCID=7d06510a
DTITLE=Alberto Vazquez - Con Orquesta - Disco 1
DYEAR=1900
DGENRE=Español
TTITLE0=La historia de mi amor
TTITLE1=Murio la flor
TTITLE2=La felicidad llego
TTITLE3=Perfidia
TTITLE4=Que me acompañe
TTITLE5=Cierra los ojos
TTITLE6=Sueño
TTITLE7=Amor no llores
TTITLE8=Ramona
TTITLE9=Que no pare el amor
EXTD=
EXTT0=
EXTT1=
EXTT2=
EXTT3=
EXTT4=
EXTT5=
EXTT6=
EXTT7=
EXTT8=
EXTT9=
PLAYORDER=
